<?xml version="1.0" standalone="no"?><svg xmlns="http://www.w3.org/2000/svg" viewBox="0 0 1440 320"><path fill="#ffffff" fill-opacity="1" d="M0,32L24,48C48,64,96,96,144,133.3C192,171,240,213,288,208C336,203,384,149,432,149.3C480,149,528,203,576,229.3C624,256,672,256,720,256C768,256,816,256,864,234.7C912,213,960,171,1008,149.3C1056,128,1104,128,1152,149.3C1200,171,1248,213,1296,192C1344,171,1392,85,1416,42.7L1440,0L1440,320L1416,320C1392,320,1344,320,1296,320C1248,320,1200,320,1152,320C1104,320,1056,320,1008,320C960,320,912,320,864,320C816,320,768,320,720,320C672,320,624,320,576,320C528,320,480,320,432,320C384,320,336,320,288,320C240,320,192,320,144,320C96,320,48,320,24,320L0,320Z"></path></svg>